<svg width="91" height="224" viewBox="0 0 91 224" fill="none" xmlns="http://www.w3.org/2000/svg">
<path d="M14.6779 203.09C-2.47893 184.906 -4.25097 163.845 7.56296 152.704C19.3769 141.563 40.3038 144.561 57.4607 162.746C74.6175 180.931 81.5081 207.417 69.6939 218.557C57.8796 229.698 31.8351 221.276 14.6779 203.09Z" fill="#854437"/>
<path d="M57.4611 162.745C40.3042 144.561 19.3776 141.563 7.56333 152.704C6.50374 153.703 5.55568 154.783 4.71582 155.932C16.8084 147.098 36.2396 150.783 52.3485 167.857C68.0404 184.489 75.1411 208.063 67.2009 220.491C68.088 219.928 68.9223 219.285 69.6943 218.557C81.5085 207.416 74.6183 180.93 57.4611 162.745Z" fill="#63352B"/>
<path d="M8.37285 158.39C7.97972 157.329 8.51712 156.147 9.57704 155.736L10.2753 155.465C11.2323 155.093 12.3137 155.473 12.813 156.363C15.3892 160.953 24.0353 174.522 39.4417 181.845C57.368 190.367 64.9174 206.559 67.1686 212.355C67.6346 213.554 67.1577 214.921 66.0482 215.59L65.9294 215.624C64.7688 215.964 63.5349 215.479 62.919 214.447C60.0715 209.673 51.0902 196.404 35.9052 189.185C17.787 180.572 10.4692 164.046 8.37285 158.39Z" fill="#572F26"/>
<path d="M63.8119 49.7475C63.8119 74.7454 50.6465 91.2816 34.4059 91.2816C18.1654 91.2816 5 74.7454 5 49.7475C5 24.7495 18.1654 0.755371 34.4059 0.755371C50.6465 0.755371 63.8119 24.7492 63.8119 49.7475Z" fill="#854437"/>
<path d="M34.4058 0.755371C33.1983 0.755371 32.0083 0.891011 30.8389 1.14674C45.397 4.33165 56.6782 26.6078 56.6782 49.7471C56.6782 72.8864 45.397 88.7736 30.8389 91.0083C32.0083 91.188 33.1983 91.2812 34.4058 91.2812C50.6463 91.2812 63.8116 74.745 63.8116 49.7471C63.8116 24.7492 50.6463 0.755371 34.4058 0.755371Z" fill="#63352B"/>
<path d="M37.109 85.6376C36.6712 86.6689 35.4799 87.1562 34.4362 86.7324L33.7486 86.4531C32.8062 86.0704 32.2853 85.0613 32.5305 84.0808C33.7949 79.0217 36.79 63.3655 30.6661 47.6159C23.5405 29.2902 29.1102 12.4886 31.4286 6.78148C31.9084 5.60008 33.1817 4.93908 34.4359 5.21169L34.5451 5.26727C35.612 5.81148 36.1719 6.99983 35.9138 8.16204C34.7202 13.538 32.1698 29.2059 38.2057 44.7294C45.4077 63.2513 39.444 80.1366 37.109 85.6376Z" fill="#572F26"/>
<path d="M75.9117 111.65C93.0685 93.4649 94.8406 72.4042 83.0266 61.2632C71.2124 50.1224 50.2857 53.1201 33.1288 71.3049C15.9719 89.4896 9.08134 115.976 20.8956 127.116C32.7099 138.257 58.7545 129.835 75.9117 111.65Z" fill="#854437"/>
<path d="M83.027 61.2637C82.2262 60.5088 81.3823 59.821 80.5021 59.196C89.3789 70.8284 86.6227 90.0043 70.8295 106.744C54.8636 123.666 31.2029 132.131 18.4736 124.247C19.1705 125.289 19.9763 126.25 20.8959 127.116C32.7102 138.257 58.7551 129.835 75.9123 111.649C93.0689 93.4651 94.8409 72.4044 83.027 61.2637Z" fill="#63352B"/>
<path d="M81.3659 66.9496C81.759 65.8893 81.2216 64.7066 80.1617 64.2953L79.4635 64.0244C78.5065 63.6529 77.4251 64.0333 76.9257 64.9229C74.3496 69.5129 65.7035 83.0816 50.2971 90.4052C32.3709 98.9267 24.8215 115.119 22.5703 120.915C22.1043 122.114 22.5812 123.481 23.6907 124.15L23.8095 124.184C24.97 124.523 26.204 124.039 26.8198 123.007C29.6674 118.233 38.6487 104.963 53.8336 97.745C71.9518 89.1318 79.2699 72.6055 81.3659 66.9496Z" fill="#572F26"/>
</svg>
