<svg width="519" height="2851" viewBox="0 0 519 2851" fill="none" xmlns="http://www.w3.org/2000/svg">
<g clip-path="url(#clip0)">
<path d="M403.274 2755.55V2760.68C403.274 2770.85 395.044 2779.08 384.893 2779.08H402.619C412.771 2779.08 421 2770.85 421 2760.68V2759.09C421 2757.13 419.413 2755.54 417.454 2755.54L403.274 2755.55Z" fill="#D6C9AD"/>
<path d="M349.054 2799.01H71.9457C69.9862 2799.01 68.3984 2797.42 68.3984 2795.46V2776.38H352.601V2795.46C352.601 2797.42 351.013 2799.01 349.054 2799.01Z" fill="#D6C9AD"/>
<path d="M334.717 2776.39V2799H349.056C351.014 2799 352.602 2797.41 352.602 2795.45V2776.39H334.717Z" fill="#C2AE86"/>
<path d="M369.568 2687.63H316.267C310.883 2687.63 306.518 2683.26 306.518 2677.86V2587.19C306.518 2581.79 310.882 2577.42 316.267 2577.42H390.573C400.922 2577.42 409.311 2585.82 409.311 2596.19V2647.81C409.311 2669.8 391.518 2687.63 369.568 2687.63ZM326.017 2668.09H368.568C380.301 2668.09 389.813 2658.56 389.813 2646.81V2596.95H326.017V2668.09Z" fill="#E36552"/>
<path d="M402.602 2779.09H18.3982C8.23746 2779.09 0 2770.86 0 2760.7V2759.08C0 2757.12 1.5878 2755.54 3.54725 2755.54H417.453C419.412 2755.54 421 2757.12 421 2759.08V2760.7C421 2770.86 412.763 2779.09 402.602 2779.09Z" fill="#F6F1DD"/>
<path d="M269.928 2758.56H151.072C116.525 2758.56 88.5186 2730.55 88.5186 2696.01V2545.82H332.481V2696.01C332.481 2730.55 304.475 2758.56 269.928 2758.56Z" fill="#E36552"/>
<path d="M314.755 2545.82V2694.41C314.755 2729.84 287.444 2758.56 253.753 2758.56H271.479C305.17 2758.56 332.482 2729.84 332.482 2694.41V2545.82H314.755Z" fill="#C95249"/>
<path d="M332.196 2610.34H88.7969V2636.96H332.196V2610.34Z" fill="#E89D41"/>
<path d="M332.196 2610.34H314.756V2636.96H332.196V2610.34Z" fill="#E89D41"/>
<path d="M349.16 2524.87C349.16 2544.38 334.651 2560.2 316.756 2560.2C307.281 2560.2 298.746 2555.77 292.825 2548.69C286.373 2558.27 276.119 2564.45 264.579 2564.45C256.133 2564.45 248.377 2561.14 242.297 2555.62C234.63 2563.84 223.915 2568.94 212.056 2568.94C199.674 2568.94 188.542 2563.38 180.804 2554.52C174.565 2560.7 166.357 2564.46 157.369 2564.46C145.572 2564.46 135.123 2558 128.688 2548.06C122.75 2555.5 114.002 2560.2 104.235 2560.2C86.3397 2560.2 71.8398 2544.38 71.8398 2524.87C71.8398 2505.36 86.3397 2489.54 104.235 2489.54C114.002 2489.54 122.75 2494.24 128.688 2501.68C135.123 2491.75 145.572 2485.29 157.369 2485.29C166.357 2485.29 174.564 2489.04 180.804 2495.22C188.542 2486.36 199.673 2480.8 212.056 2480.8C223.915 2480.8 234.63 2485.9 242.297 2494.12C248.377 2488.6 256.133 2485.29 264.579 2485.29C276.119 2485.29 286.373 2491.47 292.825 2501.05C298.746 2493.97 307.282 2489.54 316.756 2489.54C334.651 2489.54 349.16 2505.36 349.16 2524.87Z" fill="#F6F1DD"/>
<path d="M316.756 2489.54C313.68 2489.54 310.706 2490.01 307.887 2490.88C321.475 2495.09 331.433 2508.71 331.433 2524.87C331.433 2541.03 321.475 2554.65 307.887 2558.86C310.707 2559.73 313.68 2560.2 316.756 2560.2C334.651 2560.2 349.16 2544.38 349.16 2524.87C349.16 2505.36 334.651 2489.54 316.756 2489.54Z" fill="#D6C9AD"/>
</g>
<path d="M482.891 1163.63C466.654 1146.42 464.977 1126.49 476.158 1115.95C487.339 1105.4 507.144 1108.24 523.382 1125.45C539.619 1142.66 546.14 1167.73 534.959 1178.27C523.778 1188.81 499.129 1180.84 482.891 1163.63Z" fill="#854437"/>
<path d="M523.382 1125.45C507.144 1108.24 487.339 1105.4 476.158 1115.94C475.155 1116.89 474.258 1117.91 473.463 1119C484.907 1110.64 503.297 1114.13 518.543 1130.29C533.394 1146.03 540.114 1168.34 532.599 1180.1C533.439 1179.57 534.229 1178.96 534.959 1178.27C546.14 1167.73 539.619 1142.66 523.382 1125.45Z" fill="#63352B"/>
<path d="M476.925 1121.33C476.552 1120.32 477.061 1119.2 478.064 1118.81L478.725 1118.56C479.631 1118.21 480.654 1118.57 481.127 1119.41C483.565 1123.75 491.748 1136.59 506.328 1143.52C523.294 1151.59 530.439 1166.91 532.57 1172.4C533.01 1173.53 532.559 1174.83 531.509 1175.46L531.397 1175.49C530.298 1175.81 529.13 1175.36 528.548 1174.38C525.853 1169.86 517.353 1157.3 502.981 1150.47C485.834 1142.32 478.909 1126.68 476.925 1121.33Z" fill="#572F26"/>
<path d="M221.122 2376.44C208.122 2362.66 206.779 2346.7 215.731 2338.26C224.682 2329.82 240.54 2332.09 253.54 2345.87C266.54 2359.65 271.761 2379.71 262.809 2388.16C253.857 2396.6 234.122 2390.22 221.122 2376.44Z" fill="#854437"/>
<path d="M253.54 2345.87C240.54 2332.09 224.683 2329.81 215.731 2338.26C214.928 2339.01 214.21 2339.83 213.573 2340.7C222.736 2334.01 237.46 2336.8 249.666 2349.74C261.556 2362.34 266.937 2380.2 260.92 2389.62C261.592 2389.19 262.225 2388.71 262.81 2388.16C271.762 2379.71 266.541 2359.64 253.54 2345.87Z" fill="#63352B"/>
<path d="M216.344 2342.57C216.046 2341.76 216.453 2340.87 217.256 2340.55L217.785 2340.35C218.51 2340.07 219.33 2340.36 219.708 2341.03C221.66 2344.51 228.212 2354.79 239.885 2360.34C253.469 2366.8 259.189 2379.06 260.895 2383.46C261.248 2384.37 260.887 2385.4 260.046 2385.91L259.956 2385.93C259.077 2386.19 258.142 2385.82 257.675 2385.04C255.517 2381.42 248.712 2371.37 237.206 2365.9C223.477 2359.37 217.932 2346.85 216.344 2342.57Z" fill="#572F26"/>
<path d="M214.122 1857.12C201.122 1843.34 199.779 1827.38 208.731 1818.94C217.682 1810.5 233.54 1812.77 246.54 1826.55C259.54 1840.33 264.761 1860.4 255.809 1868.84C246.857 1877.28 227.122 1870.9 214.122 1857.12Z" fill="#854437"/>
<path d="M246.54 1826.55C233.54 1812.77 217.683 1810.5 208.731 1818.94C207.928 1819.7 207.21 1820.52 206.573 1821.39C215.736 1814.69 230.46 1817.49 242.666 1830.42C254.556 1843.03 259.937 1860.89 253.92 1870.31C254.592 1869.88 255.225 1869.39 255.81 1868.84C264.762 1860.4 259.541 1840.33 246.54 1826.55Z" fill="#63352B"/>
<path d="M209.344 1823.25C209.046 1822.45 209.453 1821.55 210.256 1821.24L210.785 1821.03C211.51 1820.75 212.33 1821.04 212.708 1821.71C214.66 1825.19 221.212 1835.47 232.885 1841.02C246.469 1847.48 252.189 1859.75 253.895 1864.14C254.248 1865.05 253.887 1866.09 253.046 1866.59L252.956 1866.62C252.077 1866.88 251.142 1866.51 250.675 1865.73C248.517 1862.11 241.712 1852.05 230.206 1846.59C216.477 1840.06 210.932 1827.54 209.344 1823.25Z" fill="#572F26"/>
<path d="M284.122 1627.09C271.122 1613.31 269.779 1597.35 278.731 1588.91C287.682 1580.47 303.54 1582.74 316.54 1596.52C329.54 1610.3 334.761 1630.37 325.809 1638.81C316.857 1647.25 297.122 1640.87 284.122 1627.09Z" fill="#854437"/>
<path d="M316.54 1596.52C303.54 1582.74 287.683 1580.47 278.731 1588.91C277.928 1589.67 277.21 1590.49 276.573 1591.36C285.736 1584.66 300.46 1587.46 312.666 1600.39C324.556 1613 329.937 1630.86 323.92 1640.28C324.592 1639.85 325.225 1639.36 325.81 1638.81C334.762 1630.37 329.541 1610.3 316.54 1596.52Z" fill="#63352B"/>
<path d="M279.344 1593.22C279.046 1592.42 279.453 1591.52 280.256 1591.21L280.785 1591C281.51 1590.72 282.33 1591.01 282.708 1591.68C284.66 1595.16 291.212 1605.44 302.885 1610.99C316.469 1617.45 322.189 1629.72 323.895 1634.11C324.248 1635.02 323.887 1636.06 323.046 1636.56L322.956 1636.59C322.077 1636.85 321.142 1636.48 320.675 1635.7C318.517 1632.08 311.712 1622.02 300.206 1616.55C286.477 1610.03 280.932 1597.51 279.344 1593.22Z" fill="#572F26"/>
<path d="M396.318 292.455C381.92 277.194 380.433 259.52 390.347 250.171C400.261 240.822 417.823 243.337 432.221 258.598C446.619 273.858 452.401 296.085 442.487 305.434C432.572 314.784 410.716 307.715 396.318 292.455Z" fill="#854437"/>
<path d="M432.22 258.597C417.823 243.337 400.261 240.821 390.347 250.17C389.457 251.009 388.662 251.915 387.957 252.88C398.105 245.466 414.412 248.558 427.93 262.887C441.099 276.844 447.057 296.627 440.394 307.057C441.139 306.584 441.839 306.045 442.486 305.434C452.401 296.085 446.619 273.858 432.22 258.597Z" fill="#63352B"/>
<path d="M391.027 254.942C390.697 254.052 391.148 253.06 392.038 252.715L392.623 252.487C393.427 252.175 394.334 252.495 394.753 253.241C396.915 257.093 404.171 268.48 417.1 274.626C432.143 281.777 438.479 295.366 440.368 300.229C440.759 301.236 440.359 302.383 439.428 302.944L439.328 302.973C438.354 303.258 437.318 302.851 436.802 301.985C434.412 297.979 426.875 286.843 414.132 280.785C398.927 273.557 392.786 259.688 391.027 254.942Z" fill="#572F26"/>
<path d="M379.812 349.981C379.812 374.979 366.647 391.516 350.406 391.516C334.165 391.516 321 374.979 321 349.981C321 324.983 334.165 300.989 350.406 300.989C366.647 300.989 379.812 324.983 379.812 349.981Z" fill="#854437"/>
<path d="M350.406 300.989C349.198 300.989 348.008 301.125 346.839 301.381C361.397 304.566 372.678 326.842 372.678 349.981C372.678 373.12 361.397 389.007 346.839 391.242C348.008 391.422 349.198 391.515 350.406 391.515C366.646 391.515 379.812 374.979 379.812 349.981C379.812 324.983 366.646 300.989 350.406 300.989Z" fill="#63352B"/>
<path d="M353.109 385.872C352.671 386.903 351.48 387.39 350.436 386.966L349.749 386.687C348.806 386.304 348.285 385.295 348.531 384.315C349.795 379.256 352.79 363.599 346.666 347.85C339.541 329.524 345.11 312.723 347.429 307.015C347.908 305.834 349.182 305.173 350.436 305.446L350.545 305.501C351.612 306.045 352.172 307.234 351.914 308.396C350.72 313.772 348.17 329.44 354.206 344.963C361.408 363.485 355.444 380.371 353.109 385.872Z" fill="#572F26"/>
<path d="M483.592 982.741C495.78 1003.02 493.163 1022.85 479.989 1030.77C466.815 1038.69 448.074 1031.69 435.886 1011.41C423.698 991.137 422.679 965.255 435.853 957.337C449.027 949.419 471.405 962.463 483.592 982.741Z" fill="#854437"/>
<path d="M435.853 957.337C434.874 957.926 433.975 958.616 433.151 959.393C446.513 954.879 466.524 967.449 477.806 986.219C489.087 1004.99 487.682 1023.38 476.963 1032.29C477.999 1031.86 479.01 1031.36 479.989 1030.77C493.163 1022.85 495.78 1003.02 483.592 982.741C471.405 962.463 449.027 949.419 435.853 957.337Z" fill="#63352B"/>
<path d="M479.43 1024.87C479.577 1025.92 478.849 1026.9 477.795 1027.06L477.102 1027.17C476.15 1027.32 475.236 1026.76 474.957 1025.84C473.516 1021.12 468.312 1006.96 455.666 997.172C440.952 985.781 437.278 969.437 436.376 963.677C436.189 962.485 436.9 961.328 438.05 960.937L438.166 960.929C439.297 960.85 440.33 961.541 440.687 962.61C442.34 967.553 447.91 981.505 460.375 991.155C475.247 1002.67 478.642 1019.27 479.43 1024.87Z" fill="#572F26"/>
<path d="M257.856 2248.12C257.856 2267.07 247.88 2279.6 235.574 2279.6C223.268 2279.6 213.292 2267.07 213.292 2248.12C213.292 2229.18 223.268 2211 235.574 2211C247.88 2211 257.856 2229.18 257.856 2248.12Z" fill="#854437"/>
<path d="M235.574 2211C234.659 2211 233.757 2211.1 232.871 2211.3C243.902 2213.71 252.45 2230.59 252.45 2248.12C252.45 2265.66 243.902 2277.69 232.871 2279.39C233.757 2279.52 234.659 2279.59 235.574 2279.59C247.88 2279.59 257.856 2267.06 257.856 2248.12C257.856 2229.18 247.88 2211 235.574 2211Z" fill="#63352B"/>
<path d="M237.622 2275.32C237.29 2276.1 236.388 2276.47 235.597 2276.15L235.076 2275.94C234.362 2275.65 233.967 2274.88 234.153 2274.14C235.111 2270.31 237.38 2258.44 232.74 2246.51C227.341 2232.62 231.561 2219.89 233.318 2215.57C233.681 2214.67 234.646 2214.17 235.597 2214.38L235.679 2214.42C236.488 2214.83 236.912 2215.73 236.716 2216.61C235.812 2220.69 233.879 2232.56 238.453 2244.32C243.91 2258.36 239.391 2271.15 237.622 2275.32Z" fill="#572F26"/>
<path d="M252.007 1635.13C252.007 1657.66 240.141 1672.56 225.504 1672.56C210.866 1672.56 199 1657.66 199 1635.13C199 1612.59 210.866 1590.97 225.504 1590.97C240.141 1590.97 252.007 1612.59 252.007 1635.13Z" fill="#854437"/>
<path d="M225.504 1590.97C224.416 1590.97 223.343 1591.09 222.289 1591.32C235.41 1594.19 245.578 1614.27 245.578 1635.13C245.578 1655.98 235.41 1670.3 222.289 1672.31C223.343 1672.48 224.416 1672.56 225.504 1672.56C240.142 1672.56 252.008 1657.66 252.008 1635.13C252.008 1612.59 240.142 1590.97 225.504 1590.97Z" fill="#63352B"/>
<path d="M227.94 1667.47C227.545 1668.4 226.471 1668.84 225.531 1668.46L224.911 1668.21C224.062 1667.86 223.592 1666.95 223.813 1666.07C224.953 1661.51 227.652 1647.4 222.133 1633.2C215.71 1616.69 220.73 1601.54 222.82 1596.4C223.252 1595.34 224.4 1594.74 225.53 1594.99L225.629 1595.04C226.59 1595.53 227.095 1596.6 226.862 1597.64C225.787 1602.49 223.488 1616.61 228.928 1630.6C235.419 1647.3 230.044 1662.51 227.94 1667.47Z" fill="#572F26"/>
<path d="M461.365 41.1138C461.365 62.0918 450.317 75.9689 436.688 75.9689C423.059 75.9689 412.011 62.0918 412.011 41.1138C412.011 20.1357 423.059 0 436.688 0C450.317 0 461.365 20.1354 461.365 41.1138Z" fill="#854437"/>
<path d="M436.688 0C435.674 0 434.676 0.113828 433.694 0.328437C445.911 3.00119 455.379 21.6952 455.379 41.1135C455.379 60.5318 445.911 73.8642 433.694 75.7396C434.676 75.8903 435.674 75.9686 436.688 75.9686C450.317 75.9686 461.365 62.0915 461.365 41.1135C461.365 20.1354 450.317 0 436.688 0Z" fill="#63352B"/>
<path d="M438.957 71.2325C438.589 72.0979 437.59 72.5068 436.714 72.1512L436.137 71.9169C435.346 71.5956 434.909 70.7489 435.114 69.926C436.176 65.6804 438.689 52.5418 433.55 39.3249C427.57 23.9461 432.244 9.84636 434.19 5.05695C434.592 4.06553 435.661 3.51082 436.713 3.73959L436.805 3.78623C437.7 4.24293 438.17 5.24019 437.954 6.2155C436.952 10.727 434.812 23.8753 439.877 36.9026C445.921 52.446 440.916 66.616 438.957 71.2325Z" fill="#572F26"/>
<path d="M181.782 694.272C181.782 714.821 170.96 728.414 157.61 728.414C144.26 728.414 133.438 714.821 133.438 694.272C133.438 673.723 144.26 654 157.61 654C170.96 654 181.782 673.723 181.782 694.272Z" fill="#854437"/>
<path d="M157.61 654C156.617 654 155.639 654.111 154.678 654.322C166.645 656.94 175.918 675.251 175.918 694.272C175.918 713.293 166.645 726.352 154.678 728.189C155.639 728.337 156.617 728.413 157.61 728.413C170.96 728.413 181.782 714.82 181.782 694.272C181.782 673.723 170.96 654 157.61 654Z" fill="#63352B"/>
<path d="M159.832 723.774C159.472 724.622 158.493 725.023 157.635 724.674L157.069 724.445C156.295 724.13 155.867 723.301 156.068 722.495C157.108 718.336 159.57 705.466 154.536 692.52C148.678 677.456 153.257 663.645 155.162 658.953C155.557 657.982 156.603 657.439 157.634 657.663L157.724 657.709C158.601 658.156 159.061 659.133 158.849 660.088C157.868 664.507 155.772 677.387 160.733 690.147C166.653 705.372 161.751 719.252 159.832 723.774Z" fill="#572F26"/>
<path d="M223.344 845.272C223.344 865.821 212.522 879.414 199.172 879.414C185.822 879.414 175 865.821 175 845.272C175 824.724 185.822 805 199.172 805C212.522 805 223.344 824.723 223.344 845.272Z" fill="#854437"/>
<path d="M199.172 805C198.18 805 197.202 805.111 196.24 805.322C208.207 807.94 217.481 826.251 217.481 845.272C217.481 864.293 208.207 877.352 196.24 879.189C197.202 879.337 198.18 879.414 199.172 879.414C212.522 879.414 223.344 865.821 223.344 845.272C223.344 824.723 212.522 805 199.172 805Z" fill="#63352B"/>
<path d="M201.394 874.775C201.034 875.622 200.055 876.023 199.197 875.674L198.632 875.445C197.857 875.13 197.429 874.301 197.631 873.495C198.67 869.336 201.132 856.466 196.098 843.52C190.241 828.456 194.819 814.645 196.725 809.954C197.119 808.982 198.166 808.439 199.197 808.663L199.287 808.709C200.164 809.156 200.624 810.133 200.412 811.088C199.431 815.508 197.334 828.387 202.296 841.147C208.216 856.373 203.314 870.253 201.394 874.775Z" fill="#572F26"/>
<path d="M407.977 419.426C425.134 401.241 426.906 380.181 415.092 369.04C403.278 357.899 382.351 360.897 365.194 379.081C348.037 397.266 341.147 423.752 352.961 434.893C364.775 446.033 390.82 437.611 407.977 419.426Z" fill="#854437"/>
<path d="M415.092 369.04C414.292 368.285 413.448 367.597 412.568 366.972C421.444 378.605 418.688 397.781 402.895 414.52C386.929 431.443 363.268 439.908 350.539 432.024C351.236 433.066 352.042 434.026 352.961 434.893C364.776 446.034 390.821 437.611 407.978 419.426C425.134 401.241 426.906 380.181 415.092 369.04Z" fill="#63352B"/>
<path d="M413.431 374.726C413.824 373.666 413.287 372.483 412.227 372.072L411.529 371.801C410.572 371.429 409.491 371.81 408.991 372.699C406.415 377.289 397.769 390.858 382.363 398.182C364.436 406.703 356.887 422.896 354.636 428.691C354.17 429.891 354.647 431.258 355.756 431.926L355.875 431.961C357.035 432.3 358.269 431.815 358.885 430.783C361.733 426.009 370.714 412.74 385.899 405.521C404.017 396.908 411.335 380.382 413.431 374.726Z" fill="#572F26"/>
<path d="M555.429 1069.09C571.666 1051.88 573.343 1031.95 562.162 1021.4C550.981 1010.86 531.176 1013.7 514.939 1030.91C498.701 1048.12 492.18 1073.18 503.361 1083.73C514.542 1094.27 539.191 1086.3 555.429 1069.09Z" fill="#854437"/>
<path d="M562.162 1021.4C561.404 1020.69 560.606 1020.04 559.773 1019.45C568.174 1030.46 565.565 1048.6 550.618 1064.45C535.508 1080.46 513.115 1088.47 501.068 1081.01C501.728 1082 502.491 1082.91 503.361 1083.73C514.542 1094.27 539.191 1086.3 555.429 1069.09C571.666 1051.88 573.343 1031.95 562.162 1021.4Z" fill="#63352B"/>
<path d="M560.59 1026.79C560.963 1025.78 560.454 1024.66 559.451 1024.27L558.79 1024.02C557.884 1023.67 556.861 1024.03 556.388 1024.87C553.95 1029.21 545.767 1042.05 531.187 1048.98C514.221 1057.05 507.076 1072.37 504.946 1077.86C504.505 1078.99 504.956 1080.29 506.006 1080.92L506.118 1080.95C507.217 1081.27 508.385 1080.81 508.967 1079.84C511.662 1075.32 520.162 1062.76 534.534 1055.93C551.681 1047.78 558.607 1032.14 560.59 1026.79Z" fill="#572F26"/>
<path d="M279.198 2300.74C292.198 2286.96 293.541 2271.01 284.589 2262.56C275.637 2254.12 259.78 2256.39 246.78 2270.17C233.779 2283.95 228.558 2304.02 237.51 2312.46C246.462 2320.9 266.197 2314.52 279.198 2300.74Z" fill="#854437"/>
<path d="M284.589 2262.56C283.982 2261.99 283.343 2261.47 282.676 2261C289.402 2269.81 287.314 2284.34 275.347 2297.03C263.249 2309.85 245.32 2316.26 235.675 2310.29C236.203 2311.08 236.813 2311.81 237.51 2312.46C246.462 2320.91 266.197 2314.52 279.198 2300.74C292.198 2286.96 293.541 2271.01 284.589 2262.56Z" fill="#63352B"/>
<path d="M283.331 2266.87C283.628 2266.07 283.221 2265.17 282.418 2264.86L281.889 2264.66C281.164 2264.38 280.344 2264.66 279.966 2265.34C278.014 2268.82 271.463 2279.1 259.789 2284.65C246.205 2291.1 240.485 2303.37 238.779 2307.76C238.426 2308.67 238.787 2309.71 239.628 2310.22L239.718 2310.24C240.598 2310.5 241.533 2310.13 241.999 2309.35C244.157 2305.73 250.962 2295.68 262.468 2290.21C276.197 2283.68 281.742 2271.16 283.331 2266.87Z" fill="#572F26"/>
<path d="M292.602 1759.95C308.263 1743.35 309.88 1724.12 299.096 1713.95C288.312 1703.78 269.21 1706.52 253.548 1723.12C237.887 1739.72 231.597 1763.9 242.382 1774.07C253.166 1784.23 276.94 1776.55 292.602 1759.95Z" fill="#854437"/>
<path d="M299.097 1713.89C298.366 1713.2 297.595 1712.58 296.792 1712C304.895 1722.62 302.379 1740.13 287.963 1755.41C273.388 1770.86 251.79 1778.58 240.171 1771.39C240.807 1772.34 241.543 1773.21 242.382 1774C253.166 1784.17 276.941 1776.49 292.602 1759.89C308.263 1743.29 309.881 1724.06 299.097 1713.89Z" fill="#63352B"/>
<path d="M297.58 1719.08C297.939 1718.12 297.449 1717.04 296.481 1716.66L295.844 1716.41C294.97 1716.07 293.983 1716.42 293.527 1717.23C291.176 1721.42 283.283 1733.81 269.22 1740.49C252.857 1748.27 245.965 1763.05 243.91 1768.34C243.485 1769.44 243.92 1770.69 244.933 1771.3L245.041 1771.33C246.101 1771.64 247.227 1771.2 247.789 1770.25C250.389 1765.9 258.587 1753.78 272.448 1747.19C288.987 1739.33 295.667 1724.25 297.58 1719.08Z" fill="#572F26"/>
<path d="M362.602 1517.95C378.263 1501.35 379.88 1482.12 369.096 1471.95C358.312 1461.78 339.21 1464.52 323.548 1481.12C307.887 1497.72 301.597 1521.9 312.382 1532.07C323.166 1542.23 346.94 1534.55 362.602 1517.95Z" fill="#854437"/>
<path d="M369.097 1471.95C368.366 1471.26 367.595 1470.64 366.792 1470.07C374.895 1480.68 372.379 1498.19 357.963 1513.47C343.388 1528.92 321.79 1536.64 310.171 1529.45C310.807 1530.4 311.543 1531.27 312.382 1532.07C323.166 1542.23 346.941 1534.55 362.602 1517.95C378.263 1501.35 379.881 1482.12 369.097 1471.95Z" fill="#63352B"/>
<path d="M367.58 1477.14C367.939 1476.18 367.449 1475.1 366.481 1474.72L365.844 1474.47C364.97 1474.13 363.983 1474.48 363.527 1475.29C361.176 1479.48 353.283 1491.87 339.22 1498.55C322.857 1506.33 315.965 1521.11 313.91 1526.4C313.485 1527.5 313.92 1528.75 314.933 1529.36L315.041 1529.39C316.101 1529.7 317.227 1529.26 317.789 1528.31C320.389 1523.96 328.587 1511.84 342.448 1505.25C358.987 1497.39 365.667 1482.31 367.58 1477.14Z" fill="#572F26"/>
<path d="M485.002 99.3914C499.4 84.1309 500.887 66.4569 490.973 57.1074C481.059 47.7582 463.497 50.2738 449.099 65.5344C434.701 80.7949 428.919 103.022 438.833 112.371C448.748 121.72 470.604 114.652 485.002 99.3914Z" fill="#854437"/>
<path d="M490.973 57.1076C490.301 56.4741 489.593 55.8969 488.855 55.3724C496.304 65.1342 493.991 81.2265 480.737 95.2741C467.339 109.475 447.483 116.58 436.801 109.963C437.386 110.838 438.062 111.644 438.834 112.371C448.748 121.72 470.605 114.652 485.003 99.3911C499.4 84.1308 500.888 66.4569 490.973 57.1076Z" fill="#63352B"/>
<path d="M489.58 61.8793C489.91 60.9895 489.459 59.9969 488.569 59.6518L487.983 59.4245C487.18 59.1127 486.273 59.432 485.854 60.1785C483.692 64.0304 476.436 75.4171 463.507 81.563C448.464 88.7142 442.128 102.303 440.239 107.166C439.848 108.173 440.248 109.32 441.179 109.881L441.279 109.91C442.253 110.195 443.288 109.788 443.805 108.922C446.195 104.916 453.732 93.7802 466.475 87.7225C481.68 80.4944 487.821 66.6257 489.58 61.8793Z" fill="#572F26"/>
<path d="M243.07 750.766C257.173 735.818 258.63 718.506 248.919 709.348C239.207 700.19 222.005 702.654 207.902 717.602C193.799 732.551 188.135 754.322 197.846 763.48C207.558 772.638 228.967 765.715 243.07 750.766Z" fill="#854437"/>
<path d="M248.919 709.348C248.261 708.728 247.567 708.162 246.844 707.649C254.141 717.211 251.875 732.973 238.893 746.733C225.769 760.644 206.319 767.603 195.855 761.122C196.428 761.978 197.091 762.768 197.847 763.48C207.558 772.638 228.967 765.715 243.071 750.766C257.174 735.818 258.63 718.506 248.919 709.348Z" fill="#63352B"/>
<path d="M247.554 714.022C247.877 713.151 247.436 712.179 246.564 711.841L245.99 711.618C245.204 711.312 244.315 711.625 243.904 712.356C241.787 716.129 234.679 727.283 222.015 733.303C207.279 740.308 201.074 753.618 199.223 758.382C198.84 759.368 199.232 760.492 200.144 761.042L200.242 761.07C201.196 761.349 202.21 760.95 202.716 760.102C205.057 756.178 212.44 745.27 224.922 739.337C239.816 732.256 245.831 718.672 247.554 714.022Z" fill="#572F26"/>
<defs>
<clipPath id="clip0">
<rect y="2429.4" width="421" height="421" fill="white"/>
</clipPath>
</defs>
</svg>
