<svg width="338" height="332" viewBox="0 0 338 332" fill="none" xmlns="http://www.w3.org/2000/svg">
<path d="M144.609 188.076C145.341 189.887 145.705 191.81 145.666 193.806C145.634 195.559 145.287 197.245 144.656 198.837C141.691 206.358 132.391 211.715 119.649 211.451C107.355 211.2 95.5549 205.799 91.3646 198.541C90.281 196.684 89.7076 194.706 89.7489 192.658C89.7841 190.933 90.2581 189.274 91.0938 187.709C95.1211 180.166 107.587 174.845 120.373 175.107C132.75 175.365 141.66 180.768 144.609 188.076Z" fill="#854437"/>
<path d="M203.107 147.026C203.706 148.674 203.997 150.375 203.985 152.085C203.943 160.176 197.212 168.534 185.246 172.907C173.696 177.123 160.752 176.364 154.214 171.119C152.538 169.775 151.281 168.141 150.582 166.217C149.989 164.588 149.83 162.869 150.041 161.108C151.069 152.623 160.76 143.137 172.767 138.756C184.387 134.514 194.648 136.321 200.048 142.061C201.382 143.485 202.425 145.153 203.107 147.026Z" fill="#854437"/>
<path d="M165.057 104.354C164.298 106.152 163.193 107.779 161.759 109.16C160.498 110.377 159.067 111.327 157.493 112.002C150.083 115.229 139.719 112.439 130.878 103.244C122.351 94.3716 117.812 82.2123 119.957 74.1153C120.51 72.0336 121.497 70.2243 122.976 68.805C124.223 67.608 125.731 66.7685 127.422 66.2553C135.591 63.7726 148.183 68.8278 157.049 78.0504C165.633 86.9815 168.12 97.1029 165.057 104.354Z" fill="#854437"/>
<path d="M80.0491 107.059C80.1138 109.018 79.7898 110.95 79.0611 112.811C78.4235 114.442 77.5135 115.903 76.3687 117.179C70.981 123.205 60.406 124.996 48.5371 120.327C37.1016 115.828 27.9044 106.675 26.4815 98.4184C26.1029 96.2967 26.2478 94.2325 26.9967 92.3283C27.6215 90.7238 28.6443 89.3312 29.9693 88.1496C36.3541 82.4827 49.9082 81.816 61.8098 86.4952C73.3242 91.0308 79.8141 99.1865 80.0491 107.059Z" fill="#854437"/>
<path d="M144.609 188.076C145.341 189.887 145.705 191.81 145.666 193.806C145.634 195.559 145.287 197.245 144.656 198.837C144.373 198.78 144.096 198.698 143.819 198.595C143.707 198.548 131.042 193.833 119.532 198.019L119.34 198.089C108.229 202.13 96.9091 200.053 91.3648 198.542C90.2812 196.684 89.7077 194.706 89.7491 192.658C89.7843 190.933 90.2582 189.274 91.094 187.709C91.2616 187.75 91.4256 187.8 91.5876 187.865C91.6464 187.887 94.831 189.075 99.4401 189.738C104.047 190.395 110.08 190.526 115.828 188.435L116.021 188.365C127.531 184.179 139.297 186.561 144.609 188.076Z" fill="#63352B"/>
<path d="M165.056 104.354C164.298 106.152 163.192 107.779 161.758 109.16C160.497 110.377 159.067 111.327 157.492 112.002C157.327 111.77 157.191 111.514 157.07 111.244C157.015 111.133 151.352 98.7851 140.193 93.6245C129.408 88.6338 122.822 79.114 119.956 74.1147C120.509 72.0331 121.496 70.2238 122.975 68.8044C124.222 67.6074 125.73 66.768 127.421 66.2547C127.512 66.4041 127.59 66.5576 127.664 66.7205C127.744 66.9026 133.375 79.1607 144.497 84.2977C155.665 89.4624 162.35 99.5148 165.056 104.354Z" fill="#63352B"/>
<path d="M80.0497 107.059C80.1143 109.018 79.7903 110.95 79.0616 112.811C78.424 114.442 77.514 115.903 76.3692 117.179C76.1273 117.034 75.895 116.856 75.6706 116.66C75.5752 116.578 65.278 107.723 52.9928 107.695C41.1232 107.668 31.1707 101.763 26.4817 98.4179C26.1032 96.2962 26.2481 94.232 26.997 92.3278C27.6218 90.7233 28.6446 89.3308 29.9696 88.1491C30.1131 88.2428 30.248 88.3538 30.3854 88.4714C30.4321 88.5199 33.0191 90.7489 37.1325 92.9698C41.2393 95.1932 46.8716 97.4082 53.0132 97.419C65.3076 97.4522 75.5704 103.791 80.0497 107.059Z" fill="#63352B"/>
<path d="M203.106 147.026C203.705 148.674 203.996 150.375 203.985 152.085C203.705 152.136 203.415 152.161 203.116 152.16C203 152.159 189.428 152.358 180.21 160.484C176.034 164.174 171.305 166.609 166.882 168.217C161.879 170.037 157.257 170.8 154.213 171.119C152.538 169.775 151.281 168.141 150.581 166.217C149.989 164.588 149.829 162.868 150.041 161.108C150.209 161.09 150.386 161.077 150.561 161.078C150.722 161.078 164.218 160.893 173.425 152.778C182.644 144.637 194.529 142.581 200.047 142.061C201.382 143.485 202.425 145.153 203.106 147.026Z" fill="#63352B"/>
<path d="M327.395 31.2585L252.141 117.568L236.758 105.514L302.58 11.8124C307.778 4.41304 318.117 2.88311 325.235 8.46051C332.352 14.0381 333.339 24.4426 327.395 31.2585Z" fill="#E89D41"/>
<path d="M108.976 327.952L253.821 207.124C281.11 184.36 284.777 143.787 262.014 116.501L246.594 98.0187C244.415 95.4065 240.533 95.0539 237.923 97.232L227.759 105.71C208.292 121.949 191.729 141.381 178.778 163.174L98.8089 297.736C93.8381 306.1 93.2566 316.367 97.2514 325.245C99.3037 329.807 105.138 331.154 108.976 327.952Z" fill="#F6F1DD"/>
<path d="M262.013 116.501L246.593 98.019C244.414 95.4067 240.532 95.0542 237.922 97.2323L232.764 101.534L247.928 119.71C271.134 147.526 269.637 187.755 245.854 213.768L253.819 207.124C281.108 184.36 284.777 143.787 262.013 116.501Z" fill="#D6C9AD"/>
<path d="M109.052 263.475C109.846 271.521 104.02 280.524 92.5618 286.111C81.5178 291.496 68.5648 292.075 61.5202 287.54C59.7068 286.378 58.2894 284.883 57.3924 283.037C56.6379 281.483 56.2965 279.785 56.335 278.008C56.482 269.467 65.1477 259.044 76.6294 253.442C87.7462 248.016 98.1437 248.76 104.095 253.911C105.578 255.186 106.783 256.737 107.654 258.533C108.425 260.111 108.89 261.771 109.052 263.475Z" fill="#854437"/>
<path d="M109.051 263.475C108.78 263.552 108.494 263.604 108.201 263.638C108.08 263.646 94.603 265.245 86.2756 274.277C80.9821 280.019 74.3758 283.434 68.8781 285.433C66.0165 286.474 63.4483 287.138 61.5196 287.54C59.7062 286.378 58.2888 284.883 57.3918 283.037C56.6373 281.483 56.2959 279.785 56.3344 278.008C56.5042 277.975 56.6704 277.951 56.8455 277.932C56.9796 277.919 70.4072 276.345 78.7277 267.316C87.0588 258.276 98.6586 254.999 104.095 253.911C105.578 255.186 106.783 256.736 107.654 258.532C108.424 260.111 108.89 261.771 109.051 263.475Z" fill="#63352B"/>
<path d="M59.7138 210.968C60.0555 212.687 60.0764 214.406 59.7957 216.096C58.5117 224.075 50.5747 231.296 38.0699 233.766C26.0066 236.149 13.3349 233.398 7.68203 227.206C6.23185 225.62 5.24502 223.808 4.84974 221.802C4.51733 220.108 4.61736 218.382 5.10347 216.675C7.42631 208.45 18.4715 200.587 31.0107 198.111C43.1539 195.707 53.0113 199.088 57.4539 205.596C58.5569 207.206 59.329 209.009 59.7138 210.968Z" fill="#854437"/>
<path d="M59.7143 210.968C60.0561 212.687 60.0769 214.406 59.7962 216.096C59.5153 216.104 59.2242 216.086 58.9312 216.04C58.8159 216.023 45.3752 214.12 35.0141 220.721C24.9956 227.104 13.4315 227.498 7.68261 227.206C6.23244 225.62 5.24561 223.808 4.85033 221.802C4.51792 220.109 4.61795 218.382 5.10405 216.675C5.27542 216.686 5.44918 216.703 5.62511 216.726C5.73168 216.739 14.9173 218.054 23.9453 214.771C25.8292 214.086 27.7054 213.2 29.4974 212.061C39.8626 205.45 51.9213 205.255 57.455 205.596C58.5575 207.206 59.3296 209.01 59.7143 210.968Z" fill="#63352B"/>
</svg>
