<?xml version="1.0" encoding="utf-8"?>
<!-- Generator: Adobe Illustrator 19.0.0, SVG Export Plug-In . SVG Version: 6.00 Build 0)  -->
<svg width="570" height="2851" version="1.1" id="Layer_1" xmlns="http://www.w3.org/2000/svg" xmlns:xlink="http://www.w3.org/1999/xlink" x="0px" y="0px"
	 viewBox="240 -1405 569.3 2851" style="enable-background:new 240 -1405 569.3 2851;" xml:space="preserve">
<style type="text/css">
	.st0{clip-path:url(#SVGID_2_);}
	.st1{fill:#D6C9AD;}
	.st2{fill:#C2AE86;}
	.st3{fill:#E36552;}
	.st4{fill:#F6F1DD;}
	.st5{fill:#C95249;}
	.st6{fill:#E89D41;}
	.st7{fill:#854437;}
	.st8{fill:#63352B;}
	.st9{fill:#572F26;}
</style>
<g>
	<defs>
		<rect id="SVGID_1_" x="240" y="1024.4" width="421" height="421"/>
	</defs>
	<clipPath id="SVGID_2_">
		<use xlink:href="#SVGID_1_"  style="overflow:visible;"/>
	</clipPath>
	<g class="st0">
		<path class="st1" d="M643.3,1350.6v5.1c0,10.2-8.2,18.4-18.4,18.4h17.7c10.2,0,18.4-8.2,18.4-18.4v-1.6c0-2-1.6-3.6-3.5-3.6
			L643.3,1350.6z"/>
		<path class="st1" d="M589.1,1394H311.9c-2,0-3.5-1.6-3.5-3.6v-19.1h284.2v19.1C592.6,1392.4,591,1394,589.1,1394z"/>
		<path class="st2" d="M574.7,1371.4v22.6h14.3c2,0,3.5-1.6,3.5-3.6v-19.1H574.7z"/>
		<path class="st3" d="M609.6,1282.6h-53.3c-5.4,0-9.7-4.4-9.7-9.8v-90.7c0-5.4,4.4-9.8,9.7-9.8h74.3c10.3,0,18.7,8.4,18.7,18.8
			v51.6C649.3,1264.8,631.5,1282.6,609.6,1282.6z M566,1263.1h42.6c11.7,0,21.2-9.5,21.2-21.3v-49.9H566V1263.1z"/>
		<path class="st4" d="M642.6,1374.1H258.4c-10.2,0-18.4-8.2-18.4-18.4v-1.6c0-2,1.6-3.5,3.5-3.5h413.9c2,0,3.5,1.6,3.5,3.5v1.6
			C661,1365.9,652.8,1374.1,642.6,1374.1z"/>
		<path class="st3" d="M509.9,1353.6H391.1c-34.5,0-62.6-28-62.6-62.6v-150.2h244V1291C572.5,1325.6,544.5,1353.6,509.9,1353.6z"/>
		<path class="st5" d="M554.8,1140.8v148.6c0,35.4-27.3,64.2-61,64.2h17.7c33.7,0,61-28.7,61-64.2v-148.6H554.8z"/>
		<path class="st6" d="M572.2,1205.3H328.8v26.6h243.4V1205.3z"/>
		<path class="st6" d="M572.2,1205.3h-17.4v26.6h17.4V1205.3z"/>
		<path class="st4" d="M589.2,1119.9c0,19.5-14.5,35.3-32.4,35.3c-9.5,0-18-4.4-23.9-11.5c-6.5,9.6-16.7,15.8-28.2,15.8
			c-8.4,0-16.2-3.3-22.3-8.8c-7.7,8.2-18.4,13.3-30.2,13.3c-12.4,0-23.5-5.6-31.3-14.4c-6.2,6.2-14.4,9.9-23.4,9.9
			c-11.8,0-22.2-6.5-28.7-16.4c-5.9,7.4-14.7,12.1-24.5,12.1c-17.9,0-32.4-15.8-32.4-35.3c0-19.5,14.5-35.3,32.4-35.3
			c9.8,0,18.5,4.7,24.5,12.1c6.4-9.9,16.9-16.4,28.7-16.4c9,0,17.2,3.8,23.4,9.9c7.7-8.9,18.9-14.4,31.3-14.4
			c11.9,0,22.6,5.1,30.2,13.3c6.1-5.5,13.8-8.8,22.3-8.8c11.5,0,21.8,6.2,28.2,15.8c5.9-7.1,14.5-11.5,23.9-11.5
			C574.7,1084.5,589.2,1100.4,589.2,1119.9z"/>
		<path class="st1" d="M556.8,1084.5c-3.1,0-6,0.5-8.9,1.3c13.6,4.2,23.5,17.8,23.5,34c0,16.2-10,29.8-23.5,34
			c2.8,0.9,5.8,1.3,8.9,1.3c17.9,0,32.4-15.8,32.4-35.3C589.2,1100.4,574.7,1084.5,556.8,1084.5z"/>
	</g>
</g>
<path class="st7" d="M722.9-241.4c-16.2-17.2-17.9-37.1-6.7-47.7c11.2-10.5,31-7.7,47.2,9.5c16.2,17.2,22.8,42.3,11.6,52.8
	C763.8-216.2,739.1-224.2,722.9-241.4z"/>
<path class="st8" d="M763.4-279.6c-16.2-17.2-36-20-47.2-9.5c-1,1-1.9,2-2.7,3.1c11.4-8.4,29.8-4.9,45.1,11.3
	c14.9,15.7,21.6,38,14.1,49.8c0.8-0.5,1.6-1.1,2.4-1.8C786.1-237.3,779.6-262.3,763.4-279.6z"/>
<path class="st9" d="M716.9-283.7c-0.4-1,0.1-2.1,1.1-2.5l0.7-0.2c0.9-0.4,1.9,0,2.4,0.8c2.4,4.3,10.6,17.2,25.2,24.1
	c17,8.1,24.1,23.4,26.2,28.9c0.4,1.1,0,2.4-1.1,3.1l-0.1,0c-1.1,0.3-2.3-0.1-2.8-1.1c-2.7-4.5-11.2-17.1-25.6-23.9
	C725.8-262.7,718.9-278.3,716.9-283.7z"/>
<path class="st7" d="M461.1,971.4c-13-13.8-14.3-29.7-5.4-38.2c9-8.4,24.8-6.2,37.8,7.6c13,13.8,18.2,33.8,9.3,42.3
	C493.9,991.6,474.1,985.2,461.1,971.4z"/>
<path class="st8" d="M493.5,940.9c-13-13.8-28.9-16.1-37.8-7.6c-0.8,0.8-1.5,1.6-2.2,2.4c9.2-6.7,23.9-3.9,36.1,9
	c11.9,12.6,17.3,30.5,11.3,39.9c0.7-0.4,1.3-0.9,1.9-1.5C511.8,974.7,506.5,954.6,493.5,940.9z"/>
<path class="st9" d="M456.3,937.6c-0.3-0.8,0.1-1.7,0.9-2l0.5-0.2c0.7-0.3,1.5,0,1.9,0.7c2,3.5,8.5,13.8,20.2,19.3
	c13.6,6.5,19.3,18.7,21,23.1c0.4,0.9,0,1.9-0.8,2.4l-0.1,0c-0.9,0.3-1.8-0.1-2.3-0.9c-2.2-3.6-9-13.7-20.5-19.1
	C463.5,954.4,457.9,941.9,456.3,937.6z"/>
<path class="st7" d="M454.1,452.1c-13-13.8-14.3-29.7-5.4-38.2c9-8.4,24.8-6.2,37.8,7.6c13,13.8,18.2,33.8,9.3,42.3
	C486.9,472.3,467.1,465.9,454.1,452.1z"/>
<path class="st8" d="M486.5,421.6c-13-13.8-28.9-16.1-37.8-7.6c-0.8,0.8-1.5,1.6-2.2,2.5c9.2-6.7,23.9-3.9,36.1,9
	c11.9,12.6,17.3,30.5,11.3,39.9c0.7-0.4,1.3-0.9,1.9-1.5C504.8,455.4,499.5,435.3,486.5,421.6z"/>
<path class="st9" d="M449.3,418.2c-0.3-0.8,0.1-1.7,0.9-2l0.5-0.2c0.7-0.3,1.5,0,1.9,0.7c2,3.5,8.5,13.8,20.2,19.3
	c13.6,6.5,19.3,18.7,21,23.1c0.4,0.9,0,1.9-0.8,2.4l-0.1,0c-0.9,0.3-1.8-0.1-2.3-0.9c-2.2-3.6-9-13.7-20.5-19.1
	C456.5,435.1,450.9,422.5,449.3,418.2z"/>
<path class="st7" d="M524.1,222.1c-13-13.8-14.3-29.7-5.4-38.2c9-8.4,24.8-6.2,37.8,7.6s18.2,33.8,9.3,42.3
	C556.9,242.2,537.1,235.9,524.1,222.1z"/>
<path class="st8" d="M556.5,191.5c-13-13.8-28.9-16.1-37.8-7.6c-0.8,0.8-1.5,1.6-2.2,2.4c9.2-6.7,23.9-3.9,36.1,9
	c11.9,12.6,17.3,30.5,11.3,39.9c0.7-0.4,1.3-0.9,1.9-1.5C574.8,225.4,569.5,205.3,556.5,191.5z"/>
<path class="st9" d="M519.3,188.2c-0.3-0.8,0.1-1.7,0.9-2l0.5-0.2c0.7-0.3,1.5,0,1.9,0.7c2,3.5,8.5,13.8,20.2,19.3
	c13.6,6.5,19.3,18.7,21,23.1c0.4,0.9,0,2-0.8,2.5l-0.1,0c-0.9,0.3-1.8-0.1-2.3-0.9c-2.2-3.6-9-13.7-20.5-19.1
	C526.5,205,520.9,192.5,519.3,188.2z"/>
<path class="st7" d="M636.3-1112.5c-14.4-15.3-15.9-32.9-6-42.3s27.5-6.8,41.9,8.4c14.4,15.3,20.2,37.5,10.3,46.8
	C672.6-1090.2,650.7-1097.3,636.3-1112.5z"/>
<path class="st8" d="M672.2-1146.4c-14.4-15.3-32-17.8-41.9-8.4c-0.9,0.8-1.7,1.7-2.4,2.7c10.1-7.4,26.5-4.3,40,10
	c13.2,14,19.1,33.7,12.5,44.2c0.7-0.5,1.4-1,2.1-1.6C692.4-1108.9,686.6-1131.1,672.2-1146.4z"/>
<path class="st9" d="M631-1150.1c-0.3-0.9,0.1-1.9,1-2.2l0.6-0.2c0.8-0.3,1.7,0,2.1,0.8c2.2,3.9,9.4,15.2,22.3,21.4
	c15,7.2,21.4,20.7,23.3,25.6c0.4,1,0,2.2-0.9,2.7l-0.1,0c-1,0.3-2-0.1-2.5-1c-2.4-4-9.9-15.1-22.7-21.2
	C638.9-1131.4,632.8-1145.3,631-1150.1z"/>
<path class="st7" d="M619.8-1055c0,25-13.2,41.5-29.4,41.5S561-1030,561-1055c0-25,13.2-49,29.4-49S619.8-1080,619.8-1055z"/>
<path class="st8" d="M590.4-1104c-1.2,0-2.4,0.1-3.6,0.4c14.6,3.2,25.8,25.5,25.8,48.6c0,23.1-11.3,39-25.8,41.3
	c1.2,0.2,2.4,0.3,3.6,0.3c16.2,0,29.4-16.5,29.4-41.5C619.8-1080,606.6-1104,590.4-1104z"/>
<path class="st9" d="M593.1-1019.1c-0.4,1-1.6,1.5-2.7,1.1l-0.7-0.3c-0.9-0.4-1.5-1.4-1.2-2.4c1.3-5.1,4.3-20.7-1.9-36.5
	c-7.1-18.3-1.6-35.1,0.8-40.8c0.5-1.2,1.8-1.8,3-1.6l0.1,0.1c1.1,0.5,1.6,1.7,1.4,2.9c-1.2,5.4-3.7,21,2.3,36.6
	C601.4-1041.5,595.4-1024.6,593.1-1019.1z"/>
<path class="st7" d="M723.6-422.3c12.2,20.3,9.6,40.1-3.6,48c-13.2,7.9-31.9,0.9-44.1-19.4c-12.2-20.3-13.2-46.2,0-54.1
	C689-455.6,711.4-442.5,723.6-422.3z"/>
<path class="st8" d="M675.9-447.7c-1,0.6-1.9,1.3-2.7,2.1c13.4-4.5,33.4,8.1,44.7,26.8c11.3,18.8,9.9,37.2-0.8,46.1
	c1-0.4,2-0.9,3-1.5c13.2-7.9,15.8-27.8,3.6-48C711.4-442.5,689-455.6,675.9-447.7z"/>
<path class="st9" d="M719.4-380.1c0.1,1.1-0.6,2-1.6,2.2l-0.7,0.1c-1,0.1-1.9-0.4-2.1-1.3c-1.4-4.7-6.6-18.9-19.3-28.7
	c-14.7-11.4-18.4-27.7-19.3-33.5c-0.2-1.2,0.5-2.3,1.7-2.7l0.1,0c1.1-0.1,2.2,0.6,2.5,1.7c1.7,4.9,7.2,18.9,19.7,28.5
	C715.2-402.3,718.6-385.7,719.4-380.1z"/>
<path class="st7" d="M497.9,843.1c0,18.9-10,31.5-22.3,31.5s-22.3-12.5-22.3-31.5c0-18.9,10-37.1,22.3-37.1S497.9,824.2,497.9,843.1
	z"/>
<path class="st8" d="M475.6,806c-0.9,0-1.8,0.1-2.7,0.3c11,2.4,19.6,19.3,19.6,36.8c0,17.5-8.5,29.6-19.6,31.3
	c0.9,0.1,1.8,0.2,2.7,0.2c12.3,0,22.3-12.5,22.3-31.5C497.9,824.2,487.9,806,475.6,806z"/>
<path class="st9" d="M477.6,870.3c-0.3,0.8-1.2,1.1-2,0.8l-0.5-0.2c-0.7-0.3-1.1-1.1-0.9-1.8c1-3.8,3.2-15.7-1.4-27.6
	c-5.4-13.9-1.2-26.6,0.6-30.9c0.4-0.9,1.3-1.4,2.3-1.2l0.1,0c0.8,0.4,1.2,1.3,1,2.2c-0.9,4.1-2.8,15.9,1.7,27.7
	C483.9,853.4,479.4,866.1,477.6,870.3z"/>
<path class="st7" d="M492,230.1c0,22.5-11.9,37.4-26.5,37.4c-14.6,0-26.5-14.9-26.5-37.4c0-22.5,11.9-44.2,26.5-44.2
	C480.1,186,492,207.6,492,230.1z"/>
<path class="st8" d="M465.5,186c-1.1,0-2.2,0.1-3.2,0.3c13.1,2.9,23.3,23,23.3,43.8c0,20.8-10.2,35.2-23.3,37.2
	c1.1,0.2,2.1,0.2,3.2,0.2c14.6,0,26.5-14.9,26.5-37.4C492,207.6,480.1,186,465.5,186z"/>
<path class="st9" d="M467.9,262.5c-0.4,0.9-1.5,1.4-2.4,1l-0.6-0.2c-0.8-0.3-1.3-1.3-1.1-2.1c1.1-4.6,3.8-18.7-1.7-32.9
	c-6.4-16.5-1.4-31.7,0.7-36.8c0.4-1.1,1.6-1.7,2.7-1.4l0.1,0.1c1,0.5,1.5,1.6,1.2,2.6c-1.1,4.8-3.4,19,2.1,33
	C475.4,242.3,470,257.5,467.9,262.5z"/>
<path class="st7" d="M701.4-1363.9c0,21-11,34.9-24.7,34.9s-24.7-13.9-24.7-34.9s11-41.1,24.7-41.1S701.4-1384.9,701.4-1363.9z"/>
<path class="st8" d="M676.7-1405c-1,0-2,0.1-3,0.3c12.2,2.7,21.7,21.4,21.7,40.8c0,19.4-9.5,32.8-21.7,34.6c1,0.2,2,0.2,3,0.2
	c13.6,0,24.7-13.9,24.7-34.9C701.4-1384.9,690.3-1405,676.7-1405z"/>
<path class="st9" d="M679-1333.8c-0.4,0.9-1.4,1.3-2.2,0.9l-0.6-0.2c-0.8-0.3-1.2-1.2-1-2c1.1-4.2,3.6-17.4-1.6-30.6
	c-6-15.4-1.3-29.5,0.6-34.3c0.4-1,1.5-1.5,2.5-1.3l0.1,0c0.9,0.5,1.4,1.5,1.1,2.4c-1,4.5-3.1,17.7,1.9,30.7
	C685.9-1352.6,680.9-1338.4,679-1333.8z"/>
<path class="st7" d="M421.8-710.7c0,20.5-10.8,34.1-24.2,34.1c-13.3,0-24.2-13.6-24.2-34.1c0-20.5,10.8-40.3,24.2-40.3
	C411-751,421.8-731.3,421.8-710.7z"/>
<path class="st8" d="M397.6-751c-1,0-2,0.1-2.9,0.3c12,2.6,21.2,20.9,21.2,39.9c0,19-9.3,32.1-21.2,33.9c1,0.1,1.9,0.2,2.9,0.2
	c13.4,0,24.2-13.6,24.2-34.1C421.8-731.3,411-751,397.6-751z"/>
<path class="st9" d="M399.8-681.2c-0.4,0.8-1.3,1.2-2.2,0.9l-0.6-0.2c-0.8-0.3-1.2-1.1-1-2c1-4.2,3.5-17-1.5-30
	c-5.9-15.1-1.3-28.9,0.6-33.6c0.4-1,1.4-1.5,2.5-1.3l0.1,0c0.9,0.4,1.3,1.4,1.1,2.4c-1,4.4-3.1,17.3,1.9,30.1
	C406.7-699.6,401.8-685.7,399.8-681.2z"/>
<path class="st7" d="M463.3-559.7c0,20.5-10.8,34.1-24.2,34.1c-13.3,0-24.2-13.6-24.2-34.1c0-20.5,10.8-40.3,24.2-40.3
	C452.5-600,463.3-580.3,463.3-559.7z"/>
<path class="st8" d="M439.2-600c-1,0-2,0.1-2.9,0.3c12,2.6,21.2,20.9,21.2,39.9c0,19-9.3,32.1-21.2,33.9c1,0.1,1.9,0.2,2.9,0.2
	c13.4,0,24.2-13.6,24.2-34.1C463.3-580.3,452.5-600,439.2-600z"/>
<path class="st9" d="M441.4-530.2c-0.4,0.8-1.3,1.2-2.2,0.9l-0.6-0.2c-0.8-0.3-1.2-1.1-1-2c1-4.2,3.5-17-1.5-30
	c-5.9-15.1-1.3-28.9,0.6-33.6c0.4-1,1.4-1.5,2.5-1.3l0.1,0c0.9,0.4,1.3,1.4,1.1,2.4c-1,4.4-3.1,17.3,1.9,30.1
	C448.2-548.6,443.3-534.7,441.4-530.2z"/>
<path class="st7" d="M648-985.6c17.2-18.2,18.9-39.2,7.1-50.4c-11.8-11.1-32.7-8.1-49.9,10c-17.2,18.2-24,44.7-12.2,55.8
	C604.8-959,630.8-967.4,648-985.6z"/>
<path class="st8" d="M655.1-1036c-0.8-0.8-1.6-1.4-2.5-2.1c8.9,11.6,6.1,30.8-9.7,47.5c-16,16.9-39.6,25.4-52.4,17.5
	c0.7,1,1.5,2,2.4,2.9c11.8,11.1,37.9,2.7,55-15.5C665.1-1003.8,666.9-1024.8,655.1-1036z"/>
<path class="st9" d="M653.4-1030.3c0.4-1.1-0.1-2.2-1.2-2.7l-0.7-0.3c-1-0.4-2,0-2.5,0.9c-2.6,4.6-11.2,18.2-26.6,25.5
	c-17.9,8.5-25.5,24.7-27.7,30.5c-0.5,1.2,0,2.6,1.1,3.2l0.1,0c1.2,0.3,2.4-0.1,3-1.2c2.8-4.8,11.8-18,27-25.3
	C644-1008.1,651.3-1024.6,653.4-1030.3z"/>
<path class="st7" d="M795.4-335.9c16.2-17.2,17.9-37.1,6.7-47.7c-11.2-10.5-31-7.7-47.2,9.5c-16.2,17.2-22.8,42.3-11.6,52.8
	C754.5-310.7,779.2-318.7,795.4-335.9z"/>
<path class="st8" d="M802.2-383.6c-0.8-0.7-1.6-1.4-2.4-2c8.4,11,5.8,29.1-9.2,45c-15.1,16-37.5,24-49.5,16.6c0.7,1,1.4,1.9,2.3,2.7
	c11.2,10.5,35.8,2.6,52.1-14.6C811.7-353.1,813.3-373.1,802.2-383.6z"/>
<path class="st9" d="M800.6-378.2c0.4-1-0.1-2.1-1.1-2.5l-0.7-0.2c-0.9-0.4-1.9,0-2.4,0.8c-2.4,4.3-10.6,17.2-25.2,24.1
	c-17,8.1-24.1,23.4-26.2,28.9c-0.4,1.1,0,2.4,1.1,3.1l0.1,0c1.1,0.3,2.3-0.1,2.8-1.1c2.7-4.5,11.2-17.1,25.6-23.9
	C791.7-357.2,798.6-372.9,800.6-378.2z"/>
<path class="st7" d="M519.2,895.7c13-13.8,14.3-29.7,5.4-38.2c-9-8.4-24.8-6.2-37.8,7.6c-13,13.8-18.2,33.9-9.3,42.3
	C486.5,915.9,506.2,909.5,519.2,895.7z"/>
<path class="st8" d="M524.6,857.6c-0.6-0.6-1.2-1.1-1.9-1.6c6.7,8.8,4.6,23.3-7.3,36c-12.1,12.8-30,19.2-39.7,13.3
	c0.5,0.8,1.1,1.5,1.8,2.2c9,8.4,28.7,2.1,41.7-11.7C532.2,882,533.5,866,524.6,857.6z"/>
<path class="st9" d="M523.3,861.9c0.3-0.8-0.1-1.7-0.9-2l-0.5-0.2c-0.7-0.3-1.5,0-1.9,0.7c-2,3.5-8.5,13.8-20.2,19.3
	c-13.6,6.5-19.3,18.7-21,23.1c-0.4,0.9,0,1.9,0.8,2.5l0.1,0c0.9,0.3,1.8-0.1,2.3-0.9c2.2-3.6,9-13.7,20.5-19.1
	C516.2,878.7,521.7,866.2,523.3,861.9z"/>
<path class="st7" d="M532.6,354.9c15.7-16.6,17.3-35.8,6.5-46c-10.8-10.2-29.9-7.4-45.5,9.2c-15.7,16.6-22,40.8-11.2,50.9
	C493.2,379.2,516.9,371.6,532.6,354.9z"/>
<path class="st8" d="M539.1,308.9c-0.7-0.7-1.5-1.3-2.3-1.9c8.1,10.6,5.6,28.1-8.8,43.4c-14.6,15.4-36.2,23.2-47.8,16
	c0.6,0.9,1.4,1.8,2.2,2.6c10.8,10.2,34.6,2.5,50.2-14.1C548.3,338.3,549.9,319.1,539.1,308.9z"/>
<path class="st9" d="M537.6,314.1c0.4-1-0.1-2-1.1-2.4l-0.6-0.2c-0.9-0.3-1.9,0-2.3,0.8c-2.4,4.2-10.2,16.6-24.3,23.3
	c-16.4,7.8-23.3,22.6-25.3,27.8c-0.4,1.1,0,2.3,1,3l0.1,0c1.1,0.3,2.2-0.1,2.7-1.1c2.6-4.3,10.8-16.5,24.7-23.1
	C529,334.3,535.7,319.2,537.6,314.1z"/>
<path class="st7" d="M602.6,112.9c15.7-16.6,17.3-35.8,6.5-46c-10.8-10.2-29.9-7.4-45.5,9.2c-15.7,16.6-22,40.8-11.2,50.9
	C563.2,137.2,586.9,129.6,602.6,112.9z"/>
<path class="st8" d="M609.1,66.9c-0.7-0.7-1.5-1.3-2.3-1.9c8.1,10.6,5.6,28.1-8.8,43.4c-14.6,15.5-36.2,23.2-47.8,16
	c0.6,1,1.4,1.8,2.2,2.6c10.8,10.2,34.6,2.5,50.2-14.1C618.3,96.3,619.9,77.1,609.1,66.9z"/>
<path class="st9" d="M607.6,72.1c0.4-1-0.1-2-1.1-2.4l-0.6-0.2c-0.9-0.3-1.9,0-2.3,0.8c-2.4,4.2-10.2,16.6-24.3,23.3
	c-16.4,7.8-23.3,22.6-25.3,27.8c-0.4,1.1,0,2.3,1,3l0.1,0c1.1,0.3,2.2-0.1,2.7-1.1c2.6-4.4,10.8-16.5,24.7-23.1
	C599,92.4,605.7,77.3,607.6,72.1z"/>
<path class="st7" d="M725-1305.6c14.4-15.3,15.9-32.9,6-42.3c-9.9-9.3-27.5-6.8-41.9,8.4c-14.4,15.3-20.2,37.5-10.3,46.8
	C688.7-1283.3,710.6-1290.3,725-1305.6z"/>
<path class="st8" d="M731-1347.9c-0.7-0.6-1.4-1.2-2.1-1.7c7.4,9.8,5.1,25.9-8.1,39.9c-13.4,14.2-33.3,21.3-43.9,14.7
	c0.6,0.9,1.3,1.7,2,2.4c9.9,9.3,31.8,2.3,46.2-13C739.4-1320.9,740.9-1338.5,731-1347.9z"/>
<path class="st9" d="M729.6-1343.1c0.3-0.9-0.1-1.9-1-2.2l-0.6-0.2c-0.8-0.3-1.7,0-2.1,0.8c-2.2,3.9-9.4,15.2-22.3,21.4
	c-15,7.2-21.4,20.7-23.3,25.6c-0.4,1,0,2.2,0.9,2.7l0.1,0c1,0.3,2-0.1,2.5-1c2.4-4,9.9-15.1,22.7-21.2
	C721.7-1324.5,727.8-1338.4,729.6-1343.1z"/>
<path class="st7" d="M483.1-654.2c14.1-14.9,15.6-32.3,5.8-41.4c-9.7-9.2-26.9-6.7-41,8.3c-14.1,14.9-19.8,36.7-10.1,45.9
	C447.6-632.4,469-639.3,483.1-654.2z"/>
<path class="st8" d="M488.9-695.7c-0.7-0.6-1.4-1.2-2.1-1.7c7.3,9.6,5,25.3-8,39.1c-13.1,13.9-32.6,20.9-43,14.4
	c0.6,0.9,1.2,1.6,2,2.4c9.7,9.2,31.1,2.2,45.2-12.7C497.2-669.2,498.6-686.5,488.9-695.7z"/>
<path class="st9" d="M487.6-691c0.3-0.9-0.1-1.8-1-2.2l-0.6-0.2c-0.8-0.3-1.7,0-2.1,0.7c-2.1,3.8-9.2,14.9-21.9,20.9
	c-14.7,7-20.9,20.3-22.8,25.1c-0.4,1,0,2.1,0.9,2.7l0.1,0c1,0.3,2-0.1,2.5-1c2.3-3.9,9.7-14.8,22.2-20.8
	C479.8-672.7,485.8-686.3,487.6-691z"/>
</svg>
